<?xml version="1.0" encoding="utf-8"?>
<!-- Generator: Adobe Illustrator 22.0.0, SVG Export Plug-In . SVG Version: 6.00 Build 0)  -->
<svg version="1.1" id="Capa_1" xmlns="http://www.w3.org/2000/svg" xmlns:xlink="http://www.w3.org/1999/xlink" x="0px" y="0px"
	 viewBox="0 0 595.3 841.9" style="enable-background:new 0 0 595.3 841.9;" xml:space="preserve">
<style type="text/css">
	.st0{fill-rule:evenodd;clip-rule:evenodd;}
	.st1{fill-rule:evenodd;clip-rule:evenodd;fill:url(#SVGID_1_);}
	.st2{fill-rule:evenodd;clip-rule:evenodd;fill:url(#SVGID_2_);}
	.st3{fill-rule:evenodd;clip-rule:evenodd;fill:url(#SVGID_3_);stroke:#000000;}
	.st4{fill-rule:evenodd;clip-rule:evenodd;fill:url(#SVGID_4_);}
	.st5{fill:url(#SVGID_5_);}
	.st6{fill:url(#SVGID_6_);}
	.st7{fill-rule:evenodd;clip-rule:evenodd;fill:#1F1E16;}
	.st8{fill-rule:evenodd;clip-rule:evenodd;fill:#545955;}
	.st9{fill-rule:evenodd;clip-rule:evenodd;fill:url(#SVGID_7_);}
	.st10{fill-rule:evenodd;clip-rule:evenodd;fill:#6D2E31;}
	.st11{fill-rule:evenodd;clip-rule:evenodd;fill:url(#SVGID_8_);}
	.st12{fill-rule:evenodd;clip-rule:evenodd;fill:url(#SVGID_9_);}
</style>
<path class="st0" d="M398,754.1l-0.7-70.7l0.5-336.6c0,0,0.8-34.3-8.2-57.3c-12.1-30.9-34.9-52.9-34.9-52.9s-7.6-7.9-11.8-16.4
	c-3.9-8.1-4.4-17-4.4-17l-0.9-19.9c0,0-4.9-2.9-19.8-2.9l-19.8-0.4l-19.8,0.4c-14.8,0-19.8,2.9-19.8,2.9l-0.9,19.9
	c0,0-0.5,8.9-4.4,17c-4.2,8.6-11.8,16.4-11.8,16.4s-22.8,22-34.9,52.9c-9,23.1-8.2,57.3-8.2,57.3l0.5,336.6l-0.7,70.7
	c0,0-0.5,13,0.9,25.8c0.6,5.6,2,11,3.1,15.5c1.4,5.7,9.3,9.3,9.3,9.3s8.1,3.8,19.8,5.7c20.6,3.4,42.3,4.9,66.9,4.9
	c22,0,46.4-1.5,66.9-4.9c11.7-1.9,19.8-5.7,19.8-5.7s7.8-3.5,9.3-9.3c1.1-4.4,2.5-9.9,3.1-15.5C398.5,767.1,398,754.1,398,754.1z"/>
<linearGradient id="SVGID_1_" gradientUnits="userSpaceOnUse" x1="258.5557" y1="170.2332" x2="337.6396" y2="170.2332">
	<stop  offset="2.453990e-02" style="stop-color:#061500"/>
	<stop  offset="0.1641" style="stop-color:#314727"/>
	<stop  offset="0.2866" style="stop-color:#4E713D"/>
	<stop  offset="0.3436" style="stop-color:#598245"/>
	<stop  offset="0.681" style="stop-color:#143816"/>
	<stop  offset="1" style="stop-color:#475442"/>
</linearGradient>
<path class="st1" d="M278.3,180.6c0,0,3-0.3,19.8-0.4c17.8-0.1,19.8,0.4,19.8,0.4c14.8,0,19.8,2.9,19.8,2.9l-0.6-26l-39-0.5l-39,0.5
	l-0.6,26C258.6,183.5,263.5,180.6,278.3,180.6z"/>
<linearGradient id="SVGID_2_" gradientUnits="userSpaceOnUse" x1="362.5778" y1="811.0653" x2="362.5778" y2="233.3242">
	<stop  offset="2.453990e-02" style="stop-color:#000000"/>
	<stop  offset="0.5079" style="stop-color:#070300"/>
	<stop  offset="1" style="stop-color:#1F1E16"/>
</linearGradient>
<path class="st2" d="M398,754.1l-0.7-70.7l0.5-336.6c0,0,0.8-34.3-8.2-57.3c-12.1-30.9-34.9-52.9-34.9-52.9s-1.2-1.2-2.9-3.2
	c-6.8,12.4-9.5,15.5-12.5,20.8c-3.5,6.2-9.7,20.4-12.3,25.5c0,0,7.2,22.3,8,34.5c3.8,76.5,1.7,248.9,1.7,248.9s1.6,194.9,1.8,202
	c0.8,49.1,15.5,47.2,26.5,45.4c11.7-1.9,19.8-5.7,19.8-5.7s7.8-3.5,9.3-9.3c1.1-4.4,2.5-9.9,3.1-15.5
	C398.5,767.1,398,754.1,398,754.1z"/>
<linearGradient id="SVGID_3_" gradientUnits="userSpaceOnUse" x1="251.6665" y1="777.001" x2="251.6665" y2="266.3335">
	<stop  offset="2.453990e-02" style="stop-color:#000000"/>
	<stop  offset="0.4254" style="stop-color:#222322"/>
	<stop  offset="0.8177" style="stop-color:#454946"/>
	<stop  offset="1" style="stop-color:#545955"/>
</linearGradient>
<path class="st3" d="M224.6,297.3c9.4-21.5,20.1-31,20.1-31s14.1,3.3,24.1,10.6c12,8.7,17.9,17.4,17.9,17.4V777h-70l1.1-436.9
	C217.8,340.1,218.5,311.1,224.6,297.3z"/>
<linearGradient id="SVGID_4_" gradientUnits="userSpaceOnUse" x1="229.5955" y1="813.0703" x2="229.5955" y2="157.062">
	<stop  offset="2.453990e-02" style="stop-color:#000000"/>
	<stop  offset="0.1835" style="stop-color:#151112"/>
	<stop  offset="0.5892" style="stop-color:#615E5F"/>
	<stop  offset="0.8697" style="stop-color:#9D9D9E"/>
	<stop  offset="1" style="stop-color:#BABCBD"/>
</linearGradient>
<path class="st4" d="M259.1,157.1l-0.6,26.3l-1.2,20c0,0-0.5,8.9-4.4,17c-4.2,8.6-11.8,16.4-11.8,16.4s-22.8,22-34.9,52.9
	c-9,23.1-8.2,57.3-8.2,57.3l0.5,336.6l-0.7,70.7c0,0-0.5,13,0.9,25.8c0.6,5.6,2,11,3.1,15.5c1.4,5.7,9.3,9.3,9.3,9.3
	s8.1,3.8,19.8,5.8c6.3,1,15.1,1.8,24.2,2.4c0-0.1,0-0.3,0-0.4c-6.7-0.5-12.9-1.1-17.6-1.9c-11.7-1.9-19.8-5.8-19.8-5.8
	s-7.8-3.5-9.3-9.3c-1.1-4.4-2.5-9.9-3.1-15.5c-1.3-12.8-0.9-25.8-0.9-25.8l0.7-70.7l-0.5-336.6c0,0-0.8-34.3,8.2-57.3
	c12.1-30.9,34.9-52.9,34.9-52.9s4.6-7.6,8.8-16.2c3.9-8.1,3.8-17.1,3.8-17.1l0.4-21.3v-3.8l0.8-21.5L259.1,157.1z"/>
<linearGradient id="SVGID_5_" gradientUnits="userSpaceOnUse" x1="257.8677" y1="169.5442" x2="336.95" y2="169.5442">
	<stop  offset="2.453990e-02" style="stop-color:#373C2D"/>
	<stop  offset="0.1151" style="stop-color:#4B553F"/>
	<stop  offset="0.2707" style="stop-color:#6E845C"/>
	<stop  offset="0.3436" style="stop-color:#7B9768"/>
	<stop  offset="0.681" style="stop-color:#425638"/>
	<stop  offset="1" style="stop-color:#697060"/>
</linearGradient>
<path class="st5" d="M333.5,182.1c-0.2-9.5-0.3-18.9-0.4-24.8l-21.2-0.3c-0.3,4.5-0.7,13.6-1,23.4l6.2,0.1
	C325.3,180.4,330.5,181.3,333.5,182.1z"/>
<linearGradient id="SVGID_6_" gradientUnits="userSpaceOnUse" x1="258.6748" y1="169.1187" x2="337.7588" y2="169.1187">
	<stop  offset="2.453990e-02" style="stop-color:#373C2D"/>
	<stop  offset="0.1151" style="stop-color:#4B553F"/>
	<stop  offset="0.2707" style="stop-color:#6E845C"/>
	<stop  offset="0.3436" style="stop-color:#7B9768"/>
	<stop  offset="0.681" style="stop-color:#425638"/>
	<stop  offset="1" style="stop-color:#697060"/>
</linearGradient>
<path class="st6" d="M268.5,157.4c0.1,6.2,0.2,14.9,0.2,23.8c2.6-0.3,5.9-0.5,9.8-0.5l15.7-0.3v-23.3L268.5,157.4z"/>
<path class="st7" d="M311,180.3c-0.4,13.6-0.4,28.7,1.2,35.1c0.9,3.9,10.1,7.5,13.3,9.2c5.1,2.7,20,8.5,20,8.5s-9.9-16.5-10.6-22.7
	c-0.7-6.2-1.1-17.4-1.4-28.3c-3-0.8-8.2-1.7-16.3-1.7L311,180.3z"/>
<path class="st8" d="M268.7,181.1c0,10.6-0.3,21.2-0.9,27.3c-0.7,6.2-4.1,11-1.9,13.7c2.3,2.8,9.3,0.5,14.4-2.3
	c3.3-1.7,13.9-6.3,13.9-6.3v-33.2l-15.7,0.3C274.5,180.6,271.3,180.8,268.7,181.1z"/>
<linearGradient id="SVGID_7_" gradientUnits="userSpaceOnUse" x1="258.5553" y1="91.2466" x2="337.6404" y2="91.2466">
	<stop  offset="0" style="stop-color:#6D2E31"/>
	<stop  offset="0.135" style="stop-color:#B03737"/>
	<stop  offset="0.4601" style="stop-color:#551F21"/>
	<stop  offset="0.6748" style="stop-color:#B03737"/>
	<stop  offset="1" style="stop-color:#531E20"/>
</linearGradient>
<path class="st9" d="M336.4,64.2c0,0,0.8-0.7,1-1.2c0.3-1,0.3-2,0.3-2s0-17.9-0.5-20.1c-0.3-1.7-1.5-1.9-1.5-1.9s-0.7-0.2-1.1-1.1
	c-0.3-0.8-0.3-2.2-0.3-2.2l0.3-4.3c0,0,1.2-7.4-4-9.1c-2.1-0.6-4-1.3-6.7-1.5c-9.6-0.7-17.8-1.7-25.9-1.7c-10.3,0-16.3,0.9-25.9,1.7
	c-2.7,0.2-4.6,0.8-6.7,1.5c-5.2,1.6-4,9.1-4,9.1l0.3,4.3c0,0,0.1,1.4-0.3,2.2c-0.3,0.8-1.1,1.1-1.1,1.1s-1.1,0.2-1.4,1.9
	c-0.5,2.3-0.5,20.1-0.5,20.1s0,1,0.3,2c0.2,0.5,1,1.2,1,1.2s0.6,0.8,0.8,2.3c0.2,2-1.7,96.6-1.7,96.6s25.5-1.7,40.4-1.7
	c14.2,0,38,1.7,38,1.7s-1.9-94.6-1.7-96.6C335.8,65,336.4,64.2,336.4,64.2z"/>
<path class="st10" d="M261.5,38.5c0,0,16.5-1.4,37.1-1.5c19.4-0.1,36.3,1.5,36.3,1.5l-0.5-1.9c0,0-19.7-1.9-35.8-1.9
	c-15.3,0-36.6,1.9-36.6,1.9L261.5,38.5z"/>
<path class="st10" d="M259.8,64.2l0.4,0.8c24.3-2.3,24.3-2.7,38.2-2.9c15.7-0.2,37.9,2.2,37.9,2.2l0.8-0.8l0.4-1
	c0,0-20.9-3.2-39.3-2.8c-17.4,0.4-39.3,3.5-39.3,3.5L259.8,64.2z"/>
<linearGradient id="SVGID_8_" gradientUnits="userSpaceOnUse" x1="367.1153" y1="812.9971" x2="367.1153" y2="163.1299">
	<stop  offset="2.453990e-02" style="stop-color:#000000"/>
	<stop  offset="0.1835" style="stop-color:#151112"/>
	<stop  offset="0.5892" style="stop-color:#615E5F"/>
	<stop  offset="0.8697" style="stop-color:#9D9D9E"/>
	<stop  offset="1" style="stop-color:#BABCBD"/>
</linearGradient>
<path class="st11" d="M378.5,804.9c0,0,7.8-3.5,9.3-9.3c1.1-4.4,2.5-9.9,3.1-15.5c1.3-12.8,0.9-25.8,0.9-25.8l-0.7-70.7l0.5-336.6
	c0,0,0.8-34.3-8.2-57.3c-12.1-30.9-34.9-52.9-34.9-52.9s-4.6-7.6-8.8-16.2c-3.9-8.1-3.8-17.1-3.8-17.1l0.4-40.3l1.1-0.1l1.4,40.2
	c0,0,0.5,8.9,4.4,17c4.2,8.6,11.8,16.4,11.8,16.4s22.8,22,34.9,52.9c9,23.1,8.2,57.3,8.2,57.3l-0.5,336.6l0.7,70.7
	c0,0,0.5,13-0.9,25.8c-0.6,5.6-2,11-3.1,15.5c-1.4,5.7-9.3,9.3-9.3,9.3s-8.1,3.8-19.8,5.7c-6.3,1-15.1,1.8-24.2,2.4
	c0-0.1,0-0.3,0-0.4c6.7-0.5,12.9-1.1,17.6-1.9C370.4,808.7,378.5,804.9,378.5,804.9z"/>
<linearGradient id="SVGID_9_" gradientUnits="userSpaceOnUse" x1="202.8105" y1="451.1071" x2="392.7432" y2="451.1071">
	<stop  offset="2.453990e-02" style="stop-color:#ECDDBE"/>
	<stop  offset="6.624873e-02" style="stop-color:#BBAC8C"/>
	<stop  offset="9.202450e-02" style="stop-color:#A49778"/>
	<stop  offset="0.4294" style="stop-color:#ECDDBE"/>
	<stop  offset="0.7055" style="stop-color:#A49778"/>
	<stop  offset="1" style="stop-color:#BABCBD"/>
</linearGradient>
<path class="st12" d="M202.8,340.9c0,0,71.5-1.7,95.3-1.7c23.7,0,94.6,2,94.6,2l-0.3,216.4c-27,4.9-71.2,5.5-94.8,5.4
	c-23.8-0.1-74.7-0.1-94.8-6.2V340.9z"/>
</svg>
